{"title":"The.Giant.Mechanical.Man.2012.BluRay.720p.CINEMANIA.mkv","uid":8888242,"size":4507040651,"categoryP":"video","categoryS":"hd___movies","magnet":"?xt=urn:btih:1bb5767133c72b90a9e5569722e178fff10953ec&amp;dn=The.Giant.Mechanical.Man.2012.BluRay.720p.CINEMANIA.mkv&amp;tr=udp%3A%2F%2Ftracker.openbittorrent.com%3A80&amp;tr=udp%3A%2F%2Fopen.demonii.com%3A1337&amp;tr=udp%3A%2F%2Ftracker.coppersurfer.tk%3A6969&amp;tr=udp%3A%2F%2Fexodus.desync.com%3A6969","seeders":2,"leechers":0,"uploader":"ABSTAIN","files":1,"time":1378519367,"description":"[img]http://cinemania.cc/torrents/images/6120.jpg[/img]\n\n &lt;a href=&quot;\nhttp://www.imdb.com/title/tt1769363/&quot; rel=&quot;nofollow&quot; target=&quot;_NEW&quot;&gt;\nhttp://www.imdb.com/title/tt1769363/&lt;/a&gt;\n\nGenres: Comedy | Drama | Romance\n\nDirector: Lee Kirk\nWriter: Lee Kirk\nStars: Jenna Fischer, Chris Messina, Topher Grace \n\nAn offbeat romantic comedy about a silver-painted street performer and the soft spoken zoo worker who falls for him.\n\nGeneral \nThe.Giant.Mechanical.Man.2012.BluRay.720p.CINEMANIA.mkv \nFormat : Matroska \nFormat version : Version 4 / Version 2 \nFile size : 4.20 GiB \nDuration : 1h 29mn \nOverall bit rate : 6 711 Kbps \nMovie name : CINEMANIA.CC \nEncoded date : UTC 2013-09-06 23:44:25 \nWriting application : mkvmerge v6.3.0 ('You can't stop me!') built on Jun 28 2013 20:09:41 \nWriting library : libebml v1.3.0 + libmatroska v1.4.0 \n\nVideo \nID : 1 \nFormat : AVC \nFormat/Info : Advanced Video Codec \nFormat profile : &lt;a class=&quot;__cf_email__&quot; href=&quot;/cdn-cgi/l/email-protection&quot; data-cfemail=&quot;3179585659717d051f00&quot;&gt;[email&amp;#160;protected]&lt;/a&gt;&lt;script cf-hash='f9e31' type=&quot;text/javascript&quot;&gt;\n/* &lt;![CDATA[ */!function(){try{var t=&quot;currentScript&quot;in document?document.currentScript:function(){for(var t=document.getElementsByTagName(&quot;script&quot;),e=t.length;e--;)if(t[e].getAttribute(&quot;cf-hash&quot;))return t[e]}();if(t&amp;&amp;t.previousSibling){var e,r,n,i,c=t.previousSibling,a=c.getAttribute(&quot;data-cfemail&quot;);if(a){for(e=&quot;&quot;,r=parseInt(a.substr(0,2),16),n=2;a.length-n;n+=2)i=parseInt(a.substr(n,2),16)^r,e+=String.fromCharCode(i);e=document.createTextNode(e),c.parentNode.replaceChild(e,c)}}}catch(u){}}();/* ]]&gt; */&lt;/script&gt; \nFormat settings, CABAC : Yes \nFormat settings, ReFrames : 9 frames \nCodec ID : V_MPEG4/ISO/AVC \nDuration : 1h 29mn \nBit rate : 3 560 Kbps \nWidth : 1 280 pixels \nHeight : 694 pixels \nDisplay aspect ratio : 1.85:1 \nFrame rate mode : Constant \nFrame rate : 24.000 fps \nColor space : YUV \nChroma subsampling : 4:2:0 \nBit depth : 8 bits \nScan type : Progressive \nBits/(Pixel*Frame) : 0.167 \nStream size : 2.23 GiB (53%) \nTitle : CINEMANIA.CC \nWriting library : x264 core 128 r2216 198a7ea \nEncoding settings : cabac=1 // deblock=1:-3:-3 / analyse=0x3:0x113 / me=tesa / subme=10 / psy=1 / psy_rd=0.95:0.00 // me_range=16 / chroma_me=1 / trellis=2 / 8x8dct=1 / cqm=0 / deadzone=21,11 / fast_pskip=0 / chroma_qp_offset=-2 / threads=12 / lookahead_threads=2 / sliced_threads=0 / nr=0 / decimate=0 / interlaced=0 / bluray_compat=0 / constrained_intra=0 / bframes=8 / b_pyramid=2 / b_adapt=2 / b_bias=0 / direct=3 / weightb=1 / open_gop=0 / weightp=2 / keyint=250 / keyint_min=24 / scenecut=40 / intra_refresh=0 / rc=crf / mbtree=0 / crf=14.5 / qcomp=0.55 / qpmin=0 / qpmax=69 / qpstep=4 / ip_ratio=1.40 / pb_ratio=1.30 / aq=1:0.80 \nLanguage : English \nDefault : Yes \nForced : No \nMatrix coefficients : BT.709 \n\nAudio #1 \nID : 2 \nFormat : DTS \nFormat/Info : Digital Theater Systems \nMode : 16 \nFormat settings, Endianness : Big \nCodec ID : A_DTS \nDuration : 1h 29mn \nBit rate mode : Constant \nBit rate : 1 509 Kbps \nChannel(s) : 6 channels \nChannel positions : Front: L C R, Side: L R, LFE \nSampling rate : 48.0 KHz \nBit depth : 24 bits \nCompression mode : Lossy \nStream size : 966 MiB (22%) \nTitle : MrRose \nLanguage : Russian \nDefault : Yes \nForced : Yes \n\nAudio #2 \nID : 3 \nFormat : DTS \nFormat/Info : Digital Theater Systems \nMode : 16 \nFormat settings, Endianness : Big \nCodec ID : A_DTS \nDuration : 1h 29mn \nBit rate mode : Constant \nBit rate : 1 509 Kbps \nChannel(s) : 6 channels \nChannel positions : Front: L C R, Side: L R, LFE \nSampling rate : 48.0 KHz \nBit depth : 24 bits \nCompression mode : Lossy \nStream size : 966 MiB (22%) \nLanguage : English \nDefault : No \nForced : No \n\nText #1 \nID : 4 \nFormat : UTF-8 \nCodec ID : S_TEXT/UTF8 \nCodec ID/Info : UTF-8 Plain Text \nTitle : Lenok92 \nLanguage : Russian \nDefault : No \nForced : No \n\nText #2 \nID : 5 \nFormat : UTF-8 \nCodec ID : S_TEXT/UTF8 \nCodec ID/Info : UTF-8 Plain Text \nLanguage : English \nDefault : No \nForced : No \n\nText #3 \nID : 6 \nFormat : UTF-8 \nCodec ID : S_TEXT/UTF8 \nCodec ID/Info : UTF-8 Plain Text \nLanguage : Swedish \nDefault : No \nForced : No \n\nText #4 \nID : 7 \nFormat : UTF-8 \nCodec ID : S_TEXT/UTF8 \nCodec ID/Info : UTF-8 Plain Text \nLanguage : Norwegian \nDefault : No \nForced : No \n\nText #5 \nID : 8 \nFormat : UTF-8 \nCodec ID : S_TEXT/UTF8 \nCodec ID/Info : UTF-8 Plain Text \nLanguage : Danish \nDefault : No \nForced : No \n\nText #6 \nID : 9 \nFormat : UTF-8 \nCodec ID : S_TEXT/UTF8 \nCodec ID/Info : UTF-8 Plain Text \nLanguage : Finnish \nDefault : No \nForced : No \n\nMenu \n00:00:00.000 : en:00:00:00.000 \n00:00:38.417 : en:00:00:38.417 \n00:14:30.917 : en:00:14:30.917 \n00:28:05.833 : en:00:28:05.833 \n00:42:18.667 : en:00:42:18.667 \n00:53:24.042 : en:00:53:24.042 \n01:03:48.125 : en:01:03:48.125 \n01:14:12.792 : en:01:14:12.792 \n01:23:11.833 : en:01:23:11.833 \n01:28:04.958 : en:01:28:04.958 ","torrent":{"xt":"urn:btih:1bb5767133c72b90a9e5569722e178fff10953ec","amp;dn":"The.Giant.Mechanical.Man.2012.BluRay.720p.CINEMANIA.mkv","amp;tr":["udp%3A%2F%2Ftracker.openbittorrent.com%3A80","udp%3A%2F%2Fopen.demonii.com%3A1337","udp%3A%2F%2Ftracker.coppersurfer.tk%3A6969","udp%3A%2F%2Fexodus.desync.com%3A6969"],"infoHash":"1bb5767133c72b90a9e5569722e178fff10953ec","infoHashBuffer":{"type":"Buffer","data":[27,181,118,113,51,199,43,144,169,229,86,151,34,225,120,255,241,9,83,236]},"announce":[],"urlList":[]}}